<mxfile host="app.diagrams.net" modified="2023-05-29T14:47:22.382Z" agent="Mozilla/5.0 (Macintosh; Intel Mac OS X 10_15_7) AppleWebKit/537.36 (KHTML, like Gecko) Chrome/113.0.0.0 Safari/537.36" version="21.3.5" etag="98-v_5oL2x7GjI3x0dG7" type="github">
  <diagram name="Page-1" id="MBPkJVA4E6hIF6_TCfmc">
    <mxGraphModel>
      <root>
        <mxCell id="0" />
        <mxCell id="1" parent="0" />
      </root>
    </mxGraphModel>
  </diagram>
</mxfile>
